HIERARCHY
ROOT Hips
{
	OFFSET 0.000000 0.000000 0.000000 
	CHANNELS 6 Xposition Yposition Zposition Zrotation Yrotation Xrotation
	JOINT LeftUpLeg
	{
		OFFSET 1.363060 -1.794630 0.839290 
		CHANNELS 3 Zrotation Yrotation Xrotation
		JOINT LeftLeg
		{
			OFFSET 2.448110 -6.726130 0.000000 
			CHANNELS 3 Zrotation Yrotation Xrotation
			JOINT LeftFoot
			{
				OFFSET 2.562200 -7.039590 0.000000 
				CHANNELS 3 Zrotation Yrotation Xrotation
				JOINT LeftToeBase
				{
					OFFSET 0.157640 -0.433110 2.322550 
					CHANNELS 3 Zrotation Yrotation Xrotation
					End Site
					{
						OFFSET 0.000000 0.000000 0.000000 
					}
				}
			}
		}
	}
	JOINT RightUpLeg
	{
		OFFSET -1.305520 -1.794630 0.839290 
		CHANNELS 3 Zrotation Yrotation Xrotation
		JOINT RightLeg
		{
			OFFSET -2.542530 -6.985550 0.000000 
			CHANNELS 3 Zrotation Yrotation Xrotation
			JOINT RightFoot
			{
				OFFSET -2.568260 -7.056230 0.000000 
				CHANNELS 3 Zrotation Yrotation Xrotation
				JOINT RightToeBase
				{
					OFFSET -0.164730 -0.452590 2.363150 
					CHANNELS 3 Zrotation Yrotation Xrotation
					End Site
					{
						OFFSET 0.000000 0.000000 0.000000 
					}
				}
			}
		}
	}
	JOINT Spine
	{
		OFFSET 0.028270 2.035590 -0.193380 
		CHANNELS 3 Zrotation Yrotation Xrotation
		JOINT Spine1
		{
			OFFSET 0.056720 2.048850 -0.042750 
			CHANNELS 3 Zrotation Yrotation Xrotation
			JOINT Neck1
			{
				OFFSET -0.054170 1.746240 0.172020 
				CHANNELS 3 Zrotation Yrotation Xrotation
				JOINT Head
				{
					OFFSET 0.104070 1.761360 -0.123970 
					CHANNELS 3 Zrotation Yrotation Xrotation
					End Site
					{
						OFFSET 0.000000 0.000000 0.000000 
					}
				}
			}
			JOINT LeftArm
			{
				OFFSET 3.362410 1.200890 -0.311210 
				CHANNELS 3 Zrotation Yrotation Xrotation
				JOINT LeftForeArm
				{
					OFFSET 4.983000 -0.000000 -0.000000 
					CHANNELS 3 Zrotation Yrotation Xrotation
					JOINT LeftHand
					{
						OFFSET 3.483560 -0.000000 -0.000000 
						CHANNELS 3 Zrotation Yrotation Xrotation
						JOINT LeftHandIndex1
						{
							OFFSET 0.715260 -0.000000 -0.000000 
							CHANNELS 3 Zrotation Yrotation Xrotation
							End Site
							{
								OFFSET 0.000000 0.000000 0.000000 
							}
						}
					}
				}
			}
			JOINT RightArm
			{
				OFFSET -3.136600 1.374050 -0.404650 
				CHANNELS 3 Zrotation Yrotation Xrotation
				JOINT RightForeArm
				{
					OFFSET -5.241900 -0.000000 -0.000000 
					CHANNELS 3 Zrotation Yrotation Xrotation
					JOINT RightHand
					{
						OFFSET -3.444170 -0.000000 -0.000000 
						CHANNELS 3 Zrotation Yrotation Xrotation
						JOINT RightHandIndex1
						{
							OFFSET -0.622530 -0.000000 -0.000000 
							CHANNELS 3 Zrotation Yrotation Xrotation
							End Site
							{
								OFFSET 0.000000 0.000000 0.000000 
							}
						}
					}
				}
			}
		}
	}
}
MOTION
Frames: 18
Frame Time: 0.041667
-44.352944 16.291753 -9.047781 -174.072710 47.794656 175.408660 -14.843150 7.136403 -41.937042 10.284595 19.735676 58.938678 -0.016251 3.995196 21.066358 0.045600 -1.378200 -3.790000 11.158759 -2.827852 -35.206669 -17.821647 -21.442419 79.281397 4.830976 -12.569159 7.059236 -0.000400 -0.129800 0.356700 4.276417 1.746272 5.398076 6.857396 -4.850506 1.546984 7.040069 -10.336192 5.316644 10.364500 -1.985400 -1.044100 -31.170848 -51.692398 25.923636 10.884808 -15.427529 -4.518513 -8.271522 -0.967322 15.353511 -7.125000 0.000000 0.000000 69.418289 5.299969 15.488478 -27.939074 38.822724 -20.096502 4.546620 -1.973300 -15.594329 7.125000 0.000000 0.000000 
-43.800698 16.215255 -9.011360 -175.008890 46.407212 174.291825 -14.398786 6.115743 -41.090524 10.819860 19.909112 60.896646 0.361724 2.801314 18.887471 0.006900 -0.536000 -1.473000 7.971829 -1.134273 -35.731882 -17.258828 -21.693085 75.787671 5.836559 -14.835312 8.679529 -0.227500 3.070400 -8.474800 4.571680 1.376587 5.598477 5.290870 -4.535210 0.984875 6.915929 -10.600577 5.181355 10.452900 -2.066900 -1.263000 -30.461258 -50.733525 26.796859 12.449267 -16.689206 -4.998321 -8.056779 -2.055058 13.167619 -7.125000 0.000000 0.000000 72.048644 2.752278 14.187149 -29.047433 39.822928 -21.129126 4.565946 -1.858282 -15.449853 7.125000 0.000000 0.000000 
-43.276556 16.158670 -8.988297 -176.577606 45.003155 173.073288 -14.456896 4.664216 -40.265089 11.242822 20.040264 62.359654 0.146626 3.027356 16.645576 0.076300 -1.781700 -4.902700 4.215665 0.437121 -35.886892 -16.299996 -21.851526 70.984999 6.116449 -15.729609 11.390131 -0.573700 4.850700 -13.483100 4.943456 0.823455 5.824210 3.360491 -4.104497 0.389623 6.695946 -10.811783 5.072394 10.330300 -2.179100 -1.339800 -30.073412 -49.526592 28.760938 14.334551 -18.584197 -5.735922 -7.722490 -3.601896 9.667496 -7.125000 0.000000 0.000000 74.910428 0.287584 12.564053 -30.307214 40.842523 -22.272496 4.550135 -1.724514 -15.763196 7.125000 0.000000 0.000000 
-42.776737 16.124265 -8.950363 -176.849341 43.444047 172.800440 -13.642480 2.696530 -39.264804 11.591873 20.205437 63.485527 0.110149 2.964093 14.817360 0.350000 -3.801200 -10.518200 1.345793 1.585136 -35.676046 -14.986800 -21.735952 65.408053 6.112821 -16.291052 14.735631 -1.013800 6.406000 -17.967200 5.562397 1.320618 6.318573 2.886750 -4.802648 -0.565104 6.344965 -10.072352 5.026873 10.423100 -1.902300 -1.220000 -28.248072 -47.042615 27.129867 15.413340 -20.492539 -6.513948 -7.213022 -5.042482 6.801030 -7.125000 0.000000 0.000000 75.568889 -1.568550 13.056619 -31.371075 41.605188 -23.177215 4.562327 -1.527475 -17.255386 7.125000 0.000000 0.000000 
-42.263307 16.101706 -8.889115 -176.976637 42.412961 172.632083 -12.475908 1.818391 -38.368996 11.838390 20.232439 64.284006 0.700709 1.674802 13.826306 0.366500 -3.888900 -10.764300 -1.212457 3.288178 -34.747292 -13.165941 -21.408203 58.809953 5.442452 -15.993241 19.370313 -1.460900 7.639000 -21.622900 5.991789 1.232833 6.597216 1.685453 -4.803513 -1.459824 6.054445 -9.485488 4.884875 10.221100 -1.699300 -1.326900 -26.835559 -46.212362 26.024266 15.911389 -20.950741 -6.340150 -6.062321 -5.165114 6.522171 -7.125000 0.000000 0.000000 77.001357 -3.270805 13.083931 -32.775050 42.518582 -24.333030 4.558269 -1.342571 -19.275514 7.125000 0.000000 0.000000 
-41.698459 16.112544 -8.826102 -177.696982 40.924495 172.205632 -11.419983 0.486423 -37.337747 11.884381 20.334302 64.733260 1.744171 -0.592873 13.368711 0.230100 -3.087300 -8.522000 -4.050459 4.738294 -32.770834 -11.006863 -20.425152 51.289684 4.293115 -15.438606 24.862064 -2.150900 9.173500 -26.339500 5.871336 2.169091 6.612589 3.036302 -5.244863 -1.649872 5.801282 -8.627274 4.869956 9.925100 -1.352100 -1.613600 -26.329642 -45.729093 25.886448 17.268168 -22.308623 -7.157838 -5.219491 -6.264745 4.219089 -7.125000 0.000000 0.000000 76.632879 -4.646019 13.491241 -33.916712 43.181330 -25.355052 4.606358 -1.078671 -21.219585 7.125000 0.000000 0.000000 
-41.157934 16.188034 -8.762585 -178.040209 39.560505 171.992157 -10.079292 -0.793632 -35.987111 11.783061 20.351068 64.571184 2.602542 -2.408168 13.394411 0.150800 -2.502400 -6.896200 -6.895959 7.074090 -30.335027 -8.578724 -19.114058 43.453403 2.550517 -14.450870 31.115212 -2.014300 8.895900 -25.470200 5.698032 2.841541 6.573855 4.012481 -5.462069 -1.685529 5.574365 -7.677259 4.856602 9.643800 -0.936000 -1.873200 -25.785555 -45.019231 25.776900 18.967999 -24.346153 -8.609861 -4.162052 -7.805025 -0.045528 -7.125000 0.000000 0.000000 76.249856 -5.327259 13.951173 -34.825115 43.680079 -26.178720 4.631530 -0.888180 -22.610577 7.125000 0.000000 0.000000 
-40.612367 16.255205 -8.707385 -177.891055 38.021511 172.154792 -8.407517 -2.180932 -34.615035 11.658179 20.380335 64.150100 3.197049 -3.608784 13.606882 0.199700 -2.877400 -7.937500 -9.473581 9.686549 -27.442699 -6.386650 -17.432416 35.772070 1.104452 -14.949888 37.354129 -2.085300 9.041500 -25.925400 5.592562 3.336951 6.495915 4.500350 -5.634320 -1.664494 5.396813 -6.789462 4.863153 9.452400 -0.529200 -2.081800 -25.419366 -44.884448 24.933883 20.254878 -25.866806 -9.889164 -2.949523 -8.809469 -3.844567 -7.125000 0.000000 0.000000 75.752490 -5.370599 14.489323 -35.429875 43.977451 -26.740125 4.691289 -0.764860 -23.503485 7.125000 0.000000 0.000000 
-40.049914 16.323259 -8.652438 -177.643039 36.289244 172.331215 -6.641462 -3.639382 -33.118861 11.497405 20.393576 63.510755 3.571536 -4.241441 13.736161 0.562900 -4.805400 -13.354200 -11.805281 12.413759 -24.443985 -4.735571 -15.627858 28.837079 -0.061183 -16.819772 43.127243 -1.318800 7.273500 -20.528200 5.511454 3.788108 6.474527 4.828264 -5.711470 -1.536651 5.228452 -5.802896 4.929575 9.339800 -0.089700 -2.160300 -24.389067 -43.195392 24.403316 22.854679 -29.616896 -13.550102 -3.853512 -10.889738 -10.177660 -7.125000 0.000000 0.000000 75.110896 -5.000824 15.178574 -35.839775 44.151781 -27.126728 4.731186 -0.731776 -23.867819 7.125000 0.000000 0.000000 
-39.483301 16.420552 -8.591945 -177.482108 34.496741 172.513138 -5.010275 -5.065780 -31.608274 11.181211 20.359702 62.557685 4.175751 -5.396707 14.273464 0.696000 -5.333100 -14.861000 -13.925714 15.288683 -21.838578 -3.649528 -14.062104 23.468695 -1.067274 -18.728385 47.446181 -0.698900 5.343700 -14.891600 5.417134 4.277512 6.445401 5.271605 -5.854323 -1.353239 5.043223 -4.541777 5.116914 9.141200 0.426500 -2.109600 -23.459641 -42.118930 22.643935 24.957571 -32.734668 -17.409420 -3.845463 -13.158628 -12.389471 -7.125000 0.000000 0.000000 74.296458 -4.346382 15.961638 -36.267199 44.298116 -27.523510 4.681645 -0.742542 -23.892220 7.125000 0.000000 0.000000 
-38.878754 16.456343 -8.541409 -177.172698 32.610484 173.005811 -3.256142 -6.404831 -30.417428 10.929374 20.364014 61.678122 4.799036 -6.563159 14.553298 0.864400 -5.928400 -16.576700 -15.410862 17.597041 -19.837038 -2.453800 -12.458461 19.731162 -3.101428 -16.702083 51.494157 -3.365700 11.264800 -33.178300 5.272466 4.836200 6.416138 5.740269 -6.073311 -1.154364 4.784325 -3.129416 5.311277 8.764100 0.983800 -2.104000 -22.329499 -41.114499 20.499661 26.738893 -35.392203 -21.173749 -2.989578 -15.609217 -13.466137 -7.125000 0.000000 0.000000 73.299784 -3.642663 16.747377 -36.796290 44.481440 -28.047198 4.613283 -0.728891 -23.692351 7.125000 0.000000 0.000000 
-38.258707 16.488227 -8.488604 -176.592354 30.935817 173.804792 -1.208263 -7.448195 -29.311172 10.651680 20.322413 60.462740 5.292545 -7.223099 14.570697 1.401800 -7.489500 -21.174000 -16.440541 19.718396 -18.343684 -1.843335 -11.452985 17.301001 -4.104191 -16.198681 53.897402 -2.874500 10.489100 -30.575500 5.072193 5.235439 6.342035 6.060202 -6.223421 -0.576249 4.529308 -1.571287 5.490220 8.325500 1.618300 -2.167700 -19.824748 -41.261968 21.108135 30.150417 -35.141886 -19.318717 -0.110848 -10.043395 -11.615719 -7.125000 0.000000 0.000000 72.316240 -2.845161 17.729403 -37.325420 44.731760 -28.559477 4.568218 -0.738667 -23.264053 7.125000 0.000000 0.000000 
-37.634752 16.542041 -8.427229 -176.059495 29.203114 174.684170 0.784262 -8.201969 -28.339972 10.150068 20.189474 58.852572 6.353612 -9.281279 15.449237 1.259500 -7.114200 -20.054200 -17.041172 21.224488 -17.314697 -1.070623 -10.421796 16.069612 -5.576335 -12.402022 55.910475 -3.252200 11.092500 -32.592400 4.874263 5.731412 6.301354 6.477193 -6.457195 -0.328303 4.372158 0.089620 5.733592 8.048600 2.307000 -2.122600 -18.379498 -40.908271 20.190767 30.633141 -35.906900 -20.355703 1.426141 -9.950822 -17.099104 -7.125000 0.000000 0.000000 71.500463 -2.363194 18.875514 -38.071222 45.098642 -29.223781 4.519923 -0.743662 -22.829170 7.125000 0.000000 0.000000 
-36.992902 16.603667 -8.354765 -175.486211 27.178046 175.585605 2.809097 -8.547654 -27.659697 9.509315 20.028310 56.908096 7.532752 -11.689291 16.791800 1.164200 -6.849500 -19.270300 -16.884843 21.166655 -16.578962 -0.828088 -9.794124 15.570073 -6.238900 -10.836273 57.427254 -3.053000 10.780300 -31.542400 4.611704 6.360501 6.309458 7.102666 -6.772182 -0.131995 4.230453 1.712094 5.956568 7.904100 3.003900 -2.024000 -16.860619 -40.333429 20.014313 30.854510 -36.773183 -21.609195 2.292158 -10.697569 -25.212720 -7.125000 0.000000 0.000000 70.809403 -2.123678 19.896475 -39.102387 45.588487 -30.162752 4.498803 -0.686134 -22.574903 7.125000 0.000000 0.000000 
-36.314252 16.621941 -8.283938 -175.079344 24.961455 176.156372 4.782866 -9.096300 -27.026185 8.860327 19.904621 54.883241 8.433428 -13.381858 17.950704 1.312800 -7.257400 -20.480300 -15.991417 19.268016 -16.171817 -1.491027 -9.744708 15.750961 -4.246082 -15.652694 54.531796 -5.665900 14.096500 -43.625500 4.285608 6.884167 6.400048 7.789259 -6.988349 0.032003 4.047738 3.066178 6.039663 7.726900 3.614700 -1.958900 -15.620158 -39.449182 19.947208 31.210036 -38.368027 -24.310539 1.164939 -14.739186 -33.803859 -7.125000 0.000000 0.000000 70.335093 -2.240275 20.675099 -40.507740 46.247671 -31.474042 4.476748 -0.574508 -22.822618 7.125000 0.000000 0.000000 
-35.622748 16.605054 -8.218404 -175.319757 22.451346 176.437935 6.329012 -10.255487 -26.401827 8.011110 19.724239 52.661736 9.192872 -14.976979 19.576847 0.992800 -6.341400 -17.778300 -14.928286 16.308142 -16.031668 -2.149098 -9.689824 16.481863 -2.158744 -19.185683 51.225217 -8.624300 16.559800 -54.781400 4.116860 7.114135 6.461315 8.282929 -7.014362 0.286671 3.819052 4.028914 5.997414 7.441400 4.054200 -1.792100 -14.621566 -39.125824 20.329554 34.123078 -41.154245 -26.579513 -4.822184 1.689060 -40.264577 -7.125000 0.000000 0.000000 70.302453 -2.641527 21.210702 -42.340433 47.068505 -33.185607 4.414262 -0.389996 -23.414371 7.125000 0.000000 0.000000 
-34.938049 16.614253 -8.140016 -175.543350 19.823732 176.885227 7.860104 -11.335824 -25.919940 6.965268 19.383728 49.869068 9.712032 -15.746015 21.551858 0.931000 -6.146500 -17.210000 -13.595590 12.908717 -16.339151 -2.629645 -9.633528 17.558455 -0.356026 -20.900185 47.753137 -8.445600 16.437400 -54.152200 3.921214 7.682430 6.550348 9.139508 -7.355148 0.493406 3.549323 5.111591 5.874201 7.284300 4.588100 -1.608000 -12.753883 -38.789792 20.561147 35.082043 -41.835478 -27.556542 -5.397768 0.867061 -43.267365 -7.125000 0.000000 0.000000 69.747009 -2.242939 21.839595 -43.259690 47.379382 -34.043934 4.401973 -0.247045 -24.020279 7.125000 0.000000 0.000000 
-34.259651 16.691129 -8.047135 -175.753626 17.042231 177.198365 9.244209 -12.115244 -25.212030 5.712617 18.681220 46.395922 9.959437 -15.348736 23.960744 1.249500 -7.087200 -19.973900 -12.154573 9.555958 -16.900721 -3.072031 -9.739437 18.695349 1.657401 -22.614416 43.800091 -7.705500 15.898300 -51.494900 3.935246 7.811754 6.667161 8.864035 -7.163364 -0.326884 3.187105 6.081151 5.220032 6.519800 5.150900 -2.563300 -11.474241 -38.648433 21.992087 36.836773 -42.781121 -28.727445 -5.631905 0.146722 -45.810348 -7.125000 0.000000 0.000000 70.116197 -2.531600 21.898230 -43.546713 47.436434 -34.226487 4.428424 -0.281097 -24.621089 7.125000 0.000000 0.000000 
